<?xml version="1.0" standalone="no"?>
<!DOCTYPE svg PUBLIC "-//W3C//DTD SVG 20010904//EN"
 "http://www.w3.org/TR/2001/REC-SVG-20010904/DTD/svg10.dtd">
<svg version="1.0" xmlns="http://www.w3.org/2000/svg"
 width="64.000000pt" height="64.000000pt" viewBox="0 0 64.000000 64.000000"
 preserveAspectRatio="xMidYMid meet">

<g transform="translate(0.000000,64.000000) scale(0.100000,-0.100000)"
fill="#000000" stroke="none">
<path d="M250 571 c-46 -15 -85 -39 -116 -73 -54 -57 -69 -95 -69 -178 0 -83
15 -121 69 -178 53 -57 101 -77 186 -77 57 0 84 5 115 22 47 25 95 74 121 123
26 49 26 171 0 220 -26 49 -74 98 -121 122 -43 22 -144 33 -185 19z m186 -67
c68 -42 107 -117 102 -196 -12 -168 -191 -261 -334 -172 -68 42 -107 117 -102
196 12 168 191 261 334 172z"/>
<path d="M271 466 c-48 -27 -65 -92 -35 -135 15 -21 15 -24 -9 -49 -47 -51
-62 -102 -29 -102 11 0 23 13 31 35 30 84 152 84 182 0 8 -22 20 -35 31 -35
33 0 18 51 -29 102 -24 25 -24 28 -9 49 56 81 -45 184 -133 135z m89 -46 c11
-11 20 -29 20 -40 0 -26 -34 -60 -60 -60 -26 0 -60 34 -60 60 0 11 9 29 20 40
11 11 29 20 40 20 11 0 29 -9 40 -20z"/>
</g>
</svg>
