<?xml version="1.0" standalone="no"?>
<!DOCTYPE svg PUBLIC "-//W3C//DTD SVG 20010904//EN"
 "http://www.w3.org/TR/2001/REC-SVG-20010904/DTD/svg10.dtd">
<svg version="1.0" xmlns="http://www.w3.org/2000/svg"
 width="513.000000pt" height="513.000000pt" viewBox="0 0 513.000000 513.000000"
 preserveAspectRatio="xMidYMid meet">

<g transform="translate(0.000000,513.000000) scale(0.100000,-0.100000)"
fill="#000000" stroke="none">
<path d="M1193 4261 c-29 -10 -69 -29 -90 -44 -21 -14 -221 -210 -444 -434
-489 -491 -453 -436 -454 -703 0 -145 3 -184 19 -230 17 -52 64 -100 955 -993
679 -681 949 -945 983 -963 74 -38 164 -46 452 -42 243 4 265 6 321 27 57 22
101 64 997 959 1086 1085 989 968 996 1197 5 153 -6 233 -39 304 -16 34 -132
156 -438 463 -364 365 -423 421 -476 445 l-60 28 -255 0 -255 0 -55 -28 c-42
-21 -120 -93 -320 -292 -308 -307 -326 -319 -465 -319 -139 0 -158 13 -460
313 -143 142 -273 267 -290 278 -69 46 -115 53 -349 53 -186 -1 -229 -3 -273
-19z m464 -523 c84 -84 153 -160 153 -168 0 -19 -300 -320 -319 -320 -8 0 -81
66 -163 147 -115 114 -148 153 -148 173 0 20 33 59 148 173 82 81 155 147 163
147 7 0 82 -69 166 -152z m2145 4 c109 -109 148 -154 148 -172 0 -30 -285
-320 -315 -320 -30 0 -315 290 -315 320 0 30 285 320 315 320 11 0 79 -60 167
-148z m-2675 -534 c84 -84 153 -159 153 -167 0 -21 -300 -321 -320 -321 -20 0
-320 301 -320 320 0 19 301 320 320 320 7 0 82 -68 167 -152z m3205 5 c114
-113 148 -153 148 -173 0 -19 -34 -60 -148 -173 -87 -87 -155 -147 -166 -147
-25 0 -305 277 -313 309 -5 20 17 45 148 177 85 85 160 154 168 154 8 0 81
-66 163 -147z m-2135 -15 c84 -84 153 -157 153 -163 0 -20 -304 -315 -325
-315 -27 0 -315 289 -315 315 0 26 288 315 314 315 13 0 77 -56 173 -152z
m1075 4 c88 -88 148 -156 148 -167 0 -30 -290 -315 -320 -315 -30 0 -320 285
-320 315 0 30 290 315 320 315 18 0 63 -39 172 -148z m-1075 -1064 c447 -447
683 -690 683 -703 0 -27 -288 -315 -315 -315 -13 0 -251 231 -704 684 -599
599 -683 687 -678 707 8 33 288 309 313 309 12 0 272 -253 701 -682z m530 530
c84 -84 153 -160 153 -168 0 -19 -300 -320 -319 -320 -8 0 -81 66 -163 147
-115 114 -148 153 -148 173 0 20 33 59 148 173 82 81 155 147 163 147 7 0 82
-69 166 -152z m1070 10 c79 -79 147 -154 150 -167 5 -20 -16 -45 -143 -172
-112 -112 -155 -149 -174 -149 -18 0 -61 37 -172 148 -81 81 -148 154 -148
162 0 22 301 320 324 320 12 0 76 -56 163 -142z m-530 -550 c84 -84 153 -157
153 -163 0 -20 -304 -315 -325 -315 -27 0 -315 289 -315 315 0 26 288 315 314
315 13 0 77 -56 173 -152z"/>
</g>
</svg>
